PathFileType  4	(X/Y/Z) /Users/kristensteudel/Documents/NMBL_Research/BertecForceProcessing/anc_files/
DataRate	CameraRate	NumFrames	NumMarkers	Units	OrigDataRate	OrigDataStartFrame	OrigNumFrames
  200.0		  200.0		    5		     46		 mm	  200.0	      363	    724
Frame#	Time	r_knee			r_shank_antsup			r_ankle			r_calc			r_5meta			r_toe			L_knee			L_shank_antsup			L_ankle			L_calc			L_5meta			L_toe			r_sh2			r_sh3			r_sh4			L_sh2			L_sh3			r_thigh1			r_thigh2			r_thigh3			r_thigh4			r_thigh5			L_thigh1			L_thigh2			L_thigh3			L_thigh4			r.ASIS			r.PSIS			L.ASIS			L.PSIS			C7			R_Shoulder			L_Shoulder			Sternum			R_humerus			R_elbow_med			R_elbow_lat			R_forearm			R_wrist_radius			R_wrist_ulna			L_humerus			L_elbow_med			L_elbow_lat			L_forearm			L_wrist_radius			L_wrist_ulna			
		X1	Y1	Z1	X2	Y2	Z2	X3	Y3	Z3	X4	Y4	Z4	X5	Y5	Z5	X6	Y6	Z6	X7	Y7	Z7	X8	Y8	Z8	X9	Y9	Z9	X10	Y10	Z10	X11	Y11	Z11	X12	Y12	Z12	X13	Y13	Z13	X14	Y14	Z14	X15	Y15	Z15	X16	Y16	Z16	X17	Y17	Z17	X18	Y18	Z18	X19	Y19	Z19	X20	Y20	Z20	X21	Y21	Z21	X22	Y22	Z22	X23	Y23	Z23	X24	Y24	Z24	X25	Y25	Z25	X26	Y26	Z26	X27	Y27	Z27	X28	Y28	Z28	X29	Y29	Z29	X30	Y30	Z30	X31	Y31	Z31	X32	Y32	Z32	X33	Y33	Z33	X34	Y34	Z34	X35	Y35	Z35	X36	Y36	Z36	X37	Y37	Z37	X38	Y38	Z38	X39	Y39	Z39	X40	Y40	Z40	X41	Y41	Z41	X42	Y42	Z42	X43	Y43	Z43	X44	Y44	Z44	X45	Y45	Z45	X46	Y46	Z46	

363	1.81000	935.789	514.145	-147.225	960.389	391.288	-162.374	849.661	100.428	-239.281	776.934	71.360	-311.648	951.534	33.235	-196.661	1004.427	50.052	-253.869	773.940	460.784	-450.345	664.044	456.356	-446.364	395.579	607.037	-408.154	401.084	673.915	-361.859	267.688	500.911	-409.173	275.190	468.373	-337.085	932.980	278.589	-188.308	890.664	401.570	-138.375	853.275	298.693	-175.638	695.828	541.242	-462.844	581.049	575.917	-441.217	925.808	748.449	-104.182	962.673	641.699	-130.756	932.190	594.674	-119.623	822.538	702.342	-88.383	866.740	600.561	-126.212	873.569	663.109	-447.147	861.322	522.306	-436.791	761.323	672.712	-489.587	754.214	539.221	-458.353	837.774	976.286	-152.576	638.160	1027.088	-239.346	848.058	958.781	-412.544	644.106	1022.495	-348.477	770.954	1505.237	-288.462	776.854	1469.632	-97.593	848.109	1482.996	-466.225	922.993	1399.879	-264.810	656.206	1276.131	-35.275	532.635	1203.386	-118.929	523.618	1235.072	-34.255	659.234	1120.475	-13.937	742.844	1039.703	-18.257	700.782	1012.821	-0.324	756.010	1263.218	-567.950	617.643	1188.115	-537.402	670.829	1217.959	-614.976	795.149	1117.078	-556.225	871.952	1095.093	-465.738	855.033	1041.134	-513.405
364	1.81500	933.677	512.673	-150.392	950.779	394.763	-166.179	825.909	102.076	-240.950	752.244	73.275	-313.353	925.471	33.427	-197.424	978.600	49.700	-254.785	789.209	458.999	-451.605	680.243	454.479	-448.436	411.419	604.516	-410.256	415.447	671.594	-364.195	285.970	494.831	-409.532	292.365	464.378	-340.328	921.115	280.394	-188.870	880.654	405.234	-141.915	842.052	301.312	-174.471	712.884	537.422	-465.769	597.202	573.298	-443.733	923.692	744.251	-101.340	958.513	638.006	-132.302	927.204	591.481	-120.788	818.846	700.287	-89.867	862.099	598.135	-128.041	880.453	664.914	-447.894	873.860	524.016	-438.213	768.496	671.197	-490.939	764.586	539.276	-462.861	836.055	973.318	-152.336	636.067	1025.126	-239.263	844.255	953.961	-413.936	641.435	1019.786	-348.784	770.558	1501.704	-287.473	779.015	1465.524	-96.005	845.928	1480.108	-466.916	923.413	1395.216	-265.909	662.304	1266.811	-32.843	538.224	1192.929	-114.315	530.291	1224.338	-29.439	668.757	1112.176	-12.195	753.345	1033.211	-18.126	712.187	1005.473	0.625	751.095	1260.345	-566.307	612.887	1186.352	-535.209	665.185	1216.352	-613.210	789.040	1112.557	-557.921	866.982	1088.802	-468.375	848.312	1035.672	-516.872
365	1.82000	929.741	511.765	-152.299	939.289	393.963	-166.504	801.888	103.347	-241.565	727.390	75.445	-313.367	899.552	33.161	-197.865	953.128	49.502	-255.524	805.335	458.936	-452.667	696.908	452.764	-450.272	426.625	601.046	-412.200	428.703	668.275	-366.206	303.602	488.794	-413.122	309.833	458.662	-342.974	906.552	280.914	-188.297	869.201	407.302	-143.454	828.385	303.505	-173.727	728.894	536.790	-471.070	612.292	571.123	-446.061	920.893	740.419	-100.909	954.045	634.566	-133.916	922.762	588.081	-122.910	815.195	697.730	-90.881	857.287	595.152	-129.642	887.597	668.098	-448.016	888.378	528.106	-438.448	775.554	669.862	-492.390	774.947	540.829	-467.776	834.703	970.741	-152.014	634.189	1023.734	-239.096	841.635	949.715	-413.410	639.743	1017.626	-347.879	770.487	1499.377	-286.189	781.312	1461.759	-94.427	843.841	1477.337	-467.540	923.729	1390.734	-267.234	668.591	1257.996	-31.504	544.258	1182.786	-109.708	537.470	1213.745	-24.487	678.845	1104.241	-10.840	764.402	1027.379	-18.133	724.072	998.788	1.462	746.283	1257.952	-564.826	607.881	1185.064	-533.093	659.253	1214.957	-611.387	782.932	1108.974	-559.460	861.945	1083.156	-471.274	841.592	1030.988	-520.451
366	1.82500	924.156	510.463	-153.779	926.730	389.989	-164.806	777.734	104.409	-241.354	702.148	77.237	-312.652	873.808	33.296	-197.913	927.159	49.270	-255.257	822.216	461.332	-453.607	713.966	452.079	-451.701	441.022	596.643	-414.059	440.687	663.876	-368.144	321.257	483.280	-418.298	327.328	451.208	-346.836	889.110	278.786	-187.302	857.923	406.561	-142.487	811.908	304.918	-173.866	743.814	536.279	-473.537	627.500	569.118	-448.785	916.982	737.599	-102.259	949.333	631.216	-136.555	917.902	584.705	-124.491	811.063	695.091	-92.166	852.300	592.254	-130.628	894.713	672.456	-447.840	901.625	532.764	-438.616	783.195	669.878	-493.931	785.713	543.397	-472.427	833.391	968.417	-151.310	632.311	1022.385	-238.970	839.177	945.872	-413.183	638.122	1015.564	-347.310	770.864	1497.551	-285.167	784.099	1458.208	-92.594	841.481	1474.894	-468.448	923.921	1386.608	-268.781	675.074	1250.174	-30.031	550.184	1173.046	-105.393	545.144	1203.680	-19.704	689.385	1097.231	-9.523	775.960	1022.330	-18.370	736.788	992.901	2.110	741.217	1256.295	-563.620	602.871	1183.960	-531.006	653.213	1214.087	-609.717	776.758	1106.448	-560.806	856.594	1078.108	-474.359	834.329	1026.581	-524.496
367	1.83000	916.586	507.973	-154.686	913.320	385.001	-165.283	753.080	105.283	-240.722	676.513	79.002	-311.696	847.698	33.190	-197.160	900.949	48.847	-254.570	838.815	463.204	-454.351	730.280	451.969	-453.047	454.774	590.961	-415.774	451.605	658.438	-370.087	339.584	471.515	-419.591	345.367	441.936	-350.151	870.089	275.667	-188.053	845.671	403.640	-140.066	794.473	305.873	-173.892	759.307	536.878	-475.052	641.388	567.189	-451.959	912.273	734.441	-104.791	944.008	627.739	-137.964	912.795	581.566	-126.226	806.612	692.353	-92.986	846.514	588.694	-131.018	901.782	677.895	-447.402	915.071	538.655	-438.174	791.167	670.418	-494.990	797.298	546.500	-476.147	832.272	966.665	-150.613	631.081	1020.989	-239.708	836.792	942.353	-413.107	636.524	1013.606	-346.864	771.268	1496.303	-284.481	787.169	1455.411	-90.711	839.743	1472.710	-468.920	923.946	1382.999	-270.547	682.081	1243.586	-28.760	556.625	1163.947	-101.016	553.331	1194.501	-15.179	700.333	1090.946	-8.522	787.996	1018.393	-19.024	750.020	988.003	2.469	736.066	1255.509	-562.933	597.390	1183.553	-529.122	647.011	1213.933	-607.968	770.557	1104.971	-562.005	851.780	1074.111	-477.596	827.668	1023.889	-527.971
